<?xml version="1.0" encoding="UTF-8"?>
<svg id="Layer_1" data-name="Layer 1" xmlns="http://www.w3.org/2000/svg" viewBox="0 0 1080 1080">
  <defs>
    <style>
      .cls-1 {
        fill: #fff200;
      }
    </style>
  </defs>
  <path class="cls-1" d="M241,887.14L102.86,467.03c8.23-58.06,55.87-121.95,109.82-145.29,125.22-54.18,343.52-122.83,477.25-156.42,79.04-19.86,103.55-33.12,138.21,50.46,46.04,111.04,97.36,281.4,130.22,399.17,21.73,77.85,42.12,110.89-45.99,149.8-152.24,67.24-346.76,97.52-502.98,162.71-58.22,9.62-117.12-15.15-168.39-40.32ZM894.45,694.78c7.09-7.45,10.36-23.62,10.19-33.9-.61-37.43-103.35-351.49-124.4-397.22-10.01-21.76-26.89-45.95-53.95-38.75-125.27,52.62-285.6,76.42-406.98,131.25-30.42,13.74-51.43,20.97-45.19,59.98,9.98,62.34,62.09,193.5,84.85,260.79,11.38,33.66,40.41,146.28,66.37,158.44,25.35,11.87,50.93-1.42,76.28-8.15,129.59-34.38,265.08-89.81,392.84-132.44Z"/>
  <path d="M894.45,694.78c-127.76,42.63-263.24,98.06-392.84,132.44-25.35,6.72-50.93,20.02-76.28,8.15-25.96-12.16-54.99-124.78-66.37-158.44-22.75-67.28-74.87-198.45-84.85-260.79-6.24-39,14.77-46.24,45.19-59.98,121.38-54.82,281.72-78.63,406.98-131.25,27.07-7.2,43.94,17,53.95,38.75,21.05,45.73,123.79,359.78,124.4,397.22.17,10.28-3.1,26.44-10.19,33.9ZM655.86,383.97l-55.52,21.08c12.13,49.37,17.28,119.89,77.23,63.55l-21.71-84.63ZM551.66,520.27l-31.66-92.47-45.29,11.87c-11.4,14.48,19.44,68.19,21.53,88.01l55.42-7.41ZM775.95,504.43l-47.87,7.92,7.24,42.82c-64.31,39.9-151.63,51.81-223.34,82.31l-25.37-36.09-46.99,7.6,23.86,95.83,336.84-104.33-24.37-96.07Z"/>
  <path class="cls-1" d="M775.95,504.43l24.37,96.07-336.84,104.33-23.86-95.83,46.99-7.6,25.37,36.09c71.7-30.5,159.03-42.41,223.34-82.31l-7.24-42.82,47.87-7.92Z"/>
  <path class="cls-1" d="M655.86,383.97l21.71,84.63c-59.96,56.35-65.11-14.18-77.23-63.55l55.52-21.08Z"/>
  <path class="cls-1" d="M551.66,520.27l-55.42,7.41c-2.08-19.82-32.92-73.53-21.53-88.01l45.29-11.87,31.66,92.47Z"/>
</svg>