<?xml version="1.0" encoding="UTF-8"?>
<svg id="Objects" xmlns="http://www.w3.org/2000/svg" viewBox="0 0 2200 1466">
  <defs>
    <style>
      .cls-1 {
        fill: #1b1b1b;
      }
    </style>
  </defs>
  <path class="cls-1" d="M2021.74,755.88c-2.9-39.07-28.23-72.83-64.86-86.7-30.18-11.44-58.15-20.11-58.15-20.11,0-153.06-124.09-277.14-277.15-277.14h-321.48s-.26-64.69-147.74-77.16l-8.77-187.22c-.54-11.65-5.62-22.04-13.46-29.54-7.85-7.49-18.48-12.07-30.14-12.07-23.31,0-42.51,18.32-43.6,41.61l-8.77,187.22c-147.47,12.47-147.74,77.16-147.74,77.16h-321.48c-153.06,0-277.15,124.08-277.15,277.14,0,0-27.97,8.68-58.15,20.11-36.63,13.87-61.96,47.64-64.86,86.7-2.68,36.22-5.41,84.22-5.41,130.12s2.72,93.89,5.41,130.12c2.9,39.07,28.23,72.83,64.86,86.7,30.18,11.44,58.15,20.11,58.15,20.11,0,153.06,124.09,277.14,277.15,277.14h1043.17c153.06,0,277.15-124.08,277.15-277.14,0,0,27.97-8.68,58.15-20.11,36.63-13.87,61.96-47.64,64.86-86.7,2.68-36.22,5.41-84.22,5.41-130.12s-2.72-93.89-5.41-130.12ZM1783.65,1122.93c0,43.28-16.85,83.99-47.47,114.61s-71.3,47.46-114.59,47.46H578.42c-43.3,0-83.99-16.85-114.61-47.47-30.6-30.6-47.46-71.3-47.46-114.59v-473.86c0-43.28,16.85-83.99,47.47-114.61,30.6-30.6,71.31-47.46,114.59-47.46h1043.17c43.28,0,83.99,16.85,114.61,47.47,30.6,30.6,47.46,71.3,47.46,114.59v473.86Z"/>
  <path class="cls-1" d="M943.79,700c-13.97-14.12-36.73-14.25-50.86-.29l-162.53,160.71c-6.83,6.75-10.68,15.96-10.68,25.57s3.84,18.82,10.68,25.57l162.53,160.71c7.01,6.93,16.15,10.39,25.28,10.39s18.54-3.56,25.57-10.68c13.96-14.12,13.84-36.89-.29-50.86l-136.67-135.14,136.67-135.14c14.12-13.96,14.25-36.73.29-50.86Z"/>
  <path class="cls-1" d="M1307.06,699.71c-14.12-13.96-36.89-13.84-50.86.29-13.96,14.12-13.84,36.89.29,50.86l136.67,135.14-136.67,135.14c-14.12,13.96-14.25,36.73-.29,50.86,7.03,7.11,16.3,10.68,25.57,10.68s18.27-3.46,25.28-10.39l162.53-160.71c6.83-6.75,10.68-15.96,10.68-25.57s-3.84-18.82-10.68-25.57l-162.53-160.71Z"/>
  <path class="cls-1" d="M1178.53,665.15c-18.72-6.66-39.28,3.12-45.93,21.83l-132.96,373.92c-6.65,18.71,3.12,39.28,21.83,45.93,3.98,1.42,8.05,2.09,12.05,2.09,14.79,0,28.64-9.19,33.88-23.92l132.96-373.92c6.65-18.71-3.12-39.28-21.84-45.93Z"/>
</svg>